<svg id="visual" viewBox="0 0 900 600" width="900" height="600" xmlns="http://www.w3.org/2000/svg" xmlns:xlink="http://www.w3.org/1999/xlink" version="1.1"><path d="M0 403L21.5 408.3C43 413.7 86 424.3 128.8 421C171.7 417.7 214.3 400.3 257.2 395.7C300 391 343 399 385.8 420C428.7 441 471.3 475 514.2 483.5C557 492 600 475 642.8 454.7C685.7 434.3 728.3 410.7 771.2 411.2C814 411.7 857 436.3 878.5 448.7L900 461L900 601L878.5 601C857 601 814 601 771.2 601C728.3 601 685.7 601 642.8 601C600 601 557 601 514.2 601C471.3 601 428.7 601 385.8 601C343 601 300 601 257.2 601C214.3 601 171.7 601 128.8 601C86 601 43 601 21.5 601L0 601Z" fill="#0066FF" stroke-linecap="round" stroke-linejoin="miter"></path></svg>